<svg width="30" height="30" viewBox="0 0 30 30" fill="none" xmlns="http://www.w3.org/2000/svg">
<mask id="mask0_440_5824" style="mask-type:alpha" maskUnits="userSpaceOnUse" x="2" y="3" width="26" height="23">
<path fill-rule="evenodd" clip-rule="evenodd" d="M22.0618 7.69296C22.5572 7.76105 22.973 7.86468 23.3538 8.02239C24.8342 8.63558 26.0103 9.81174 26.6235 11.2921C27.0834 12.4024 27.0834 13.8099 27.0834 16.625C27.0834 19.4401 27.0834 20.8476 26.6235 21.9579C26.0103 23.4383 24.8342 24.6144 23.3538 25.2276C22.2436 25.6875 20.836 25.6875 18.0209 25.6875H11.9792C9.16418 25.6875 7.75665 25.6875 6.64637 25.2276C5.16599 24.6144 3.98983 23.4383 3.37664 21.9579C2.91675 20.8476 2.91675 19.4401 2.91675 16.625C2.91675 13.8099 2.91675 12.4024 3.37664 11.2921C3.98983 9.81174 5.16599 8.63558 6.64637 8.02239C7.02713 7.86468 7.44286 7.76105 7.93834 7.69296C8.33642 6.29514 8.63976 5.4969 9.22724 4.93743C9.41769 4.75607 9.6273 4.59597 9.85238 4.45996C10.717 3.9375 11.8228 3.9375 14.0345 3.9375H15.9657C18.1774 3.9375 19.2831 3.9375 20.1478 4.45996C20.3728 4.59597 20.5825 4.75607 20.7729 4.93743C21.3604 5.4969 21.6638 6.29514 22.0618 7.69296Z" fill="white"/>
</mask>
<g mask="url(#mask0_440_5824)">
<path d="M22.0618 7.69297L20.3187 8.18941L20.6428 9.32748L21.8151 9.48859L22.0618 7.69297ZM23.3538 8.0224L24.0474 6.34786L23.3538 8.0224ZM26.6235 11.2921L24.949 11.9857L26.6235 11.2921ZM26.6235 21.9579L24.949 21.2643L26.6235 21.9579ZM23.3538 25.2276L24.0474 26.9021L23.3538 25.2276ZM6.64637 25.2276L5.95276 26.9021L6.64637 25.2276ZM3.37664 21.9579L5.05117 21.2643L3.37664 21.9579ZM3.37664 11.2921L1.70211 10.5985L3.37664 11.2921ZM6.64637 8.0224L7.33999 9.69693L6.64637 8.0224ZM7.93834 7.69297L8.18509 9.48859L9.35741 9.32748L9.68152 8.18941L7.93834 7.69297ZM9.22725 4.93744L10.4772 6.24997L9.22725 4.93744ZM9.85238 4.45996L10.7898 6.01123L9.85238 4.45996ZM20.1478 4.45996L19.2104 6.01123L20.1478 4.45996ZM20.7729 4.93744L22.0229 3.6249L20.7729 4.93744ZM21.8151 9.48859C22.1988 9.54132 22.4569 9.61273 22.6602 9.69693L24.0474 6.34786C23.4891 6.11664 22.9159 5.98079 22.3086 5.89734L21.8151 9.48859ZM22.6602 9.69693C23.6965 10.1262 24.5197 10.9495 24.949 11.9857L28.298 10.5985C27.5009 8.67403 25.9719 7.14501 24.0474 6.34786L22.6602 9.69693ZM24.949 11.9857C25.0723 12.2832 25.1664 12.6924 25.2176 13.4426C25.2699 14.2092 25.2709 15.1926 25.2709 16.625H28.8959C28.8959 15.2423 28.8969 14.1145 28.8342 13.1959C28.7705 12.2611 28.6347 11.4113 28.298 10.5985L24.949 11.9857ZM25.2709 16.625C25.2709 18.0574 25.2699 19.0408 25.2176 19.8074C25.1664 20.5576 25.0723 20.9668 24.949 21.2643L28.298 22.6514C28.6347 21.8387 28.7705 20.9889 28.8342 20.0541C28.8969 19.1356 28.8959 18.0077 28.8959 16.625H25.2709ZM24.949 21.2643C24.5197 22.3005 23.6965 23.1238 22.6602 23.5531L24.0474 26.9021C25.9719 26.105 27.5009 24.576 28.298 22.6514L24.949 21.2643ZM22.6602 23.5531C22.3627 23.6764 21.9536 23.7705 21.2033 23.8217C20.4367 23.874 19.4533 23.875 18.0209 23.875V27.5C19.4036 27.5 20.5315 27.501 21.45 27.4383C22.3848 27.3746 23.2346 27.2388 24.0474 26.9021L22.6602 23.5531ZM18.0209 23.875H11.9792V27.5H18.0209V23.875ZM11.9792 23.875C10.5469 23.875 9.56344 23.874 8.7969 23.8217C8.04663 23.7705 7.63747 23.6764 7.33999 23.5531L5.95276 26.9021C6.76556 27.2388 7.6153 27.3746 8.55014 27.4383C9.46869 27.501 10.5965 27.5 11.9792 27.5V23.875ZM7.33999 23.5531C6.30372 23.1238 5.48041 22.3005 5.05117 21.2643L1.70211 22.6514C2.49926 24.576 4.02827 26.105 5.95276 26.9021L7.33999 23.5531ZM5.05117 21.2643C4.92796 20.9668 4.83372 20.5576 4.78254 19.8074C4.73023 19.0408 4.72925 18.0574 4.72925 16.625H1.10425C1.10425 18.0077 1.10327 19.1356 1.16594 20.0541C1.22972 20.9889 1.36544 21.8387 1.70211 22.6514L5.05117 21.2643ZM4.72925 16.625C4.72925 15.1926 4.73023 14.2092 4.78254 13.4426C4.83372 12.6924 4.92796 12.2832 5.05117 11.9857L1.70211 10.5985C1.36544 11.4113 1.22972 12.2611 1.16594 13.1959C1.10327 14.1145 1.10425 15.2423 1.10425 16.625H4.72925ZM5.05117 11.9857C5.48041 10.9495 6.30372 10.1262 7.33999 9.69693L5.95276 6.34786C4.02827 7.14501 2.49926 8.67403 1.70211 10.5985L5.05117 11.9857ZM7.33999 9.69693C7.54328 9.61273 7.80138 9.54132 8.18509 9.48859L7.69158 5.89734C7.08435 5.98079 6.51101 6.11664 5.95276 6.34786L7.33999 9.69693ZM9.68152 8.18941C10.0936 6.74253 10.2957 6.42281 10.4772 6.24997L7.97729 3.6249C6.98381 4.57102 6.57927 5.84777 6.19515 7.19651L9.68152 8.18941ZM10.4772 6.24997C10.5724 6.15929 10.6772 6.07924 10.7898 6.01123L8.91498 2.90869C8.57736 3.11271 8.26295 3.35285 7.97729 3.6249L10.4772 6.24997ZM10.7898 6.01123C10.9043 5.94201 11.101 5.85746 11.6165 5.80653C12.1678 5.75206 12.8927 5.75001 14.0345 5.75001V2.12501C12.9645 2.12501 12.0307 2.12295 11.2601 2.1991C10.4536 2.27878 9.66502 2.45546 8.91498 2.90869L10.7898 6.01123ZM14.0345 5.75001H15.9657V2.12501H14.0345V5.75001ZM15.9657 5.75001C17.1074 5.75001 17.8323 5.75206 18.3837 5.80653C18.8993 5.85746 19.0958 5.94201 19.2104 6.01123L21.0852 2.90869C20.3351 2.45546 19.5466 2.27878 18.7401 2.1991C17.9694 2.12295 17.0356 2.12501 15.9657 2.12501V5.75001ZM19.2104 6.01123C19.3229 6.07924 19.4278 6.15929 19.523 6.24998L22.0229 3.6249C21.7373 3.35285 21.4229 3.11271 21.0852 2.90869L19.2104 6.01123ZM19.523 6.24997C19.7045 6.42281 19.9066 6.74253 20.3187 8.18941L23.805 7.19651C23.421 5.84777 23.0164 4.57102 22.0229 3.6249L19.523 6.24997Z" fill="white"/>
<path d="M18.9272 16.0208C18.9272 13.852 17.1689 12.0938 15.0001 12.0938C12.8312 12.0938 11.073 13.852 11.073 16.0208C11.073 18.1897 12.8312 19.9479 15.0001 19.9479C17.1689 19.9479 18.9272 18.1897 18.9272 16.0208Z" stroke="white" stroke-width="1.5"/>
</g>
</svg>
