<svg width="9" height="16" viewBox="0 0 9 16" fill="none" xmlns="http://www.w3.org/2000/svg">
<path d="M0.721059 7.74252C0.714963 8.22125 0.771035 8.69876 0.887869 9.16306C1.13544 10.1692 1.73913 11.5461 1.94698 12.0134C1.84556 12.1552 1.796 12.3276 1.8066 12.5017C1.81721 12.6757 1.88734 12.8408 2.00524 12.9693C1.86885 13.1188 1.7973 13.3164 1.80623 13.5186C1.81516 13.7208 1.90386 13.9113 2.0529 14.0482C1.93887 14.1846 1.87571 14.3563 1.87417 14.5341C1.8811 14.7577 1.97615 14.9694 2.1386 15.1232C2.30104 15.277 2.5177 15.3603 2.74132 15.3549L5.87763 15.3959H5.88425C6.12064 15.3975 6.34842 15.3073 6.51972 15.1444C6.59588 15.0719 6.65636 14.9846 6.6974 14.8878C6.73844 14.791 6.75917 14.6869 6.7583 14.5817C6.75743 14.4766 6.73499 14.3728 6.69235 14.2767C6.64972 14.1806 6.5878 14.0943 6.51045 14.0231C6.62447 13.8867 6.68764 13.715 6.68917 13.5372C6.69031 13.3443 6.61951 13.1578 6.49059 13.0143C6.61785 12.874 6.68835 12.6913 6.68835 12.5019C6.68835 12.3125 6.61785 12.1299 6.49059 11.9896C6.71168 11.4997 7.29816 10.152 7.54176 9.16173C7.65866 8.69789 7.71473 8.22082 7.70857 7.74252C7.69075 6.82647 7.31434 5.95396 6.66021 5.31243C6.00607 4.67089 5.1264 4.31152 4.21018 4.31152C3.29396 4.31152 2.41429 4.67089 1.76016 5.31243C1.10602 5.95396 0.729613 6.82647 0.711792 7.74252H0.721059ZM6.14902 14.7658C6.11385 14.7994 6.0723 14.8256 6.02682 14.8429C5.98134 14.8602 5.93286 14.8682 5.88425 14.8664L2.74794 14.8254C2.6646 14.832 2.58195 14.8059 2.51763 14.7524C2.45332 14.699 2.41245 14.6225 2.40373 14.5394C2.40848 14.4753 2.4343 14.4146 2.47716 14.3667C2.52002 14.3188 2.57753 14.2864 2.64071 14.2746C2.69847 14.2591 2.74928 14.2245 2.78486 14.1764C2.82044 14.1283 2.83869 14.0696 2.83664 14.0098C2.83353 13.9495 2.80992 13.8921 2.76971 13.8471C2.72949 13.8021 2.6751 13.7721 2.61555 13.7623C2.5435 13.7552 2.47612 13.7234 2.42492 13.6722C2.37373 13.621 2.34191 13.5537 2.33489 13.4816C2.34023 13.4208 2.3646 13.3633 2.40453 13.3172C2.44446 13.2711 2.49792 13.2387 2.5573 13.2248C2.61076 13.2077 2.65741 13.174 2.69051 13.1287C2.72361 13.0834 2.74144 13.0287 2.74144 12.9726C2.74144 12.9164 2.72361 12.8618 2.69051 12.8164C2.65741 12.7711 2.61076 12.7375 2.5573 12.7204C2.49661 12.7057 2.44212 12.6722 2.40168 12.6246C2.36125 12.577 2.33693 12.5178 2.33224 12.4556C2.33304 12.4111 2.34685 12.3678 2.37196 12.3311H6.07886C6.1032 12.3539 6.12268 12.3813 6.1361 12.4118C6.14953 12.4423 6.15663 12.4752 6.15697 12.5085C6.15184 12.569 6.12768 12.6263 6.08796 12.6722C6.04824 12.7181 5.995 12.7503 5.93588 12.764C5.88192 12.7808 5.83473 12.8144 5.80122 12.8599C5.76771 12.9054 5.74963 12.9604 5.74963 13.0169C5.74963 13.0734 5.76771 13.1284 5.80122 13.1739C5.83473 13.2194 5.88192 13.253 5.93588 13.2698C5.99642 13.2845 6.05072 13.3181 6.09094 13.3657C6.13115 13.4133 6.1552 13.4724 6.15962 13.5346C6.15516 13.5985 6.1296 13.6592 6.08696 13.7072C6.04432 13.7551 5.987 13.7875 5.92396 13.7993C5.86586 13.8151 5.81488 13.8503 5.77942 13.8989C5.74397 13.9476 5.72616 14.0069 5.72893 14.067C5.73171 14.1272 5.75491 14.1846 5.79469 14.2298C5.83448 14.275 5.88848 14.3053 5.94779 14.3157C6.01985 14.3227 6.08723 14.3545 6.13842 14.4057C6.18961 14.4569 6.22144 14.5243 6.22846 14.5963C6.22463 14.6609 6.1962 14.7215 6.14902 14.7658ZM4.21217 4.77435C4.99905 4.7754 5.75341 5.08845 6.30982 5.64486C6.86623 6.20128 7.17929 6.95563 7.18034 7.74252C7.18602 8.17837 7.1353 8.61313 7.02941 9.03596C6.79508 9.98917 6.20066 11.3462 5.9981 11.7976H2.42359C2.21971 11.3462 1.62925 9.99049 1.39227 9.03729C1.28543 8.61415 1.23425 8.17889 1.24003 7.74252C1.24055 7.3521 1.31798 6.96561 1.46791 6.60512C1.61784 6.24464 1.83732 5.91723 2.11382 5.64159C2.39032 5.36595 2.71842 5.14749 3.07936 4.99869C3.44031 4.84989 3.82704 4.77365 4.21746 4.77435H4.21217Z" fill="#FFB085"/>
<path d="M0.551558 1.64197C0.526756 1.61006 0.495826 1.58344 0.460586 1.56366C0.425346 1.54388 0.386508 1.53134 0.346354 1.52679C0.30608 1.52174 0.265205 1.52476 0.22611 1.53567C0.187015 1.54658 0.150483 1.56516 0.118644 1.59033C0.0541797 1.64119 0.0123284 1.71538 0.00214134 1.79686C-0.00264954 1.83722 0.000617477 1.87813 0.011753 1.91722C0.0228885 1.95631 0.0416708 1.99279 0.0670119 2.02457L1.64774 4.02895C1.67698 4.06552 1.71403 4.09508 1.75618 4.11547C1.79834 4.13586 1.84452 4.14655 1.89134 4.14677H1.90193C1.96749 4.14459 2.03062 4.12138 2.08198 4.08058C2.14589 4.02978 2.18717 3.95581 2.19684 3.87474C2.20651 3.79367 2.18379 3.71207 2.13361 3.64767L0.551558 1.64197ZM1.91252 3.87273C1.90559 3.87885 1.89661 3.88215 1.88737 3.88199C1.88053 3.88279 1.87361 3.88174 1.86732 3.87895C1.86103 3.87615 1.85561 3.87172 1.85162 3.86611L0.272216 1.86041C0.26855 1.85605 0.265833 1.85097 0.264237 1.8455C0.262642 1.84003 0.262203 1.83429 0.262949 1.82864C0.264619 1.81667 0.27077 1.80579 0.280159 1.79819C0.287815 1.79243 0.297066 1.7892 0.306637 1.78892C0.318082 1.79101 0.328406 1.79711 0.335762 1.80613L1.92311 3.81315C1.92999 3.82276 1.93327 3.83447 1.93238 3.84625C1.92949 3.85734 1.92236 3.86685 1.91252 3.87273Z" fill="#FFB085"/>
<path d="M6.27212 4.07788C6.32288 4.11118 6.38219 4.12912 6.4429 4.12951H6.45349C6.50202 4.12819 6.54957 4.11552 6.59232 4.09253C6.63508 4.06954 6.67187 4.03687 6.69974 3.99712L8.00245 2.03776C8.0256 2.00404 8.04181 1.96607 8.05015 1.92603C8.05848 1.88599 8.05877 1.8447 8.051 1.80455C8.04323 1.7644 8.02756 1.7262 8.00489 1.69216C7.98222 1.65813 7.95301 1.62894 7.91896 1.60629C7.8849 1.58365 7.84669 1.568 7.80653 1.56026C7.76638 1.55252 7.72508 1.55285 7.68505 1.56121C7.64502 1.56958 7.60706 1.58582 7.57336 1.60899C7.53967 1.63216 7.51091 1.66181 7.48878 1.69619L6.18607 3.65423C6.14106 3.72266 6.12486 3.80608 6.14097 3.88638C6.15708 3.96669 6.2042 4.0374 6.27212 4.08317V4.07788ZM6.40451 3.79589L7.7059 1.83653C7.71321 1.82782 7.72285 1.82139 7.7337 1.81799C7.74517 1.81621 7.7569 1.81855 7.7668 1.82461C7.7717 1.82795 7.77588 1.83226 7.77906 1.83727C7.78225 1.84227 7.78438 1.84788 7.78533 1.85374C7.78769 1.8587 7.78891 1.86413 7.78891 1.86962C7.78891 1.87512 7.78769 1.88055 7.78533 1.88551L6.48262 3.84487C6.47865 3.85077 6.47335 3.85565 6.46713 3.8591C6.46092 3.86255 6.45398 3.86448 6.44687 3.86473C6.4379 3.86458 6.42916 3.86182 6.42172 3.85679C6.41685 3.85371 6.41269 3.84965 6.4095 3.84486C6.4063 3.84007 6.40415 3.83466 6.40319 3.82899C6.40167 3.82221 6.40184 3.81516 6.40369 3.80847C6.40554 3.80177 6.409 3.79563 6.41378 3.79059L6.40451 3.79589Z" fill="#FFB085"/>
<path d="M4.1525 3.61465H4.17633C4.25396 3.61174 4.32766 3.57979 4.38283 3.52511C4.438 3.47043 4.47061 3.39701 4.47421 3.31942L4.58409 0.717968C4.5859 0.677298 4.57957 0.636675 4.56548 0.598483C4.55139 0.560291 4.52981 0.525298 4.50201 0.495555C4.47498 0.465527 4.44217 0.441257 4.40555 0.424197C4.36893 0.407136 4.32924 0.397636 4.28886 0.396263C4.20723 0.392903 4.12749 0.421385 4.06645 0.475697C4.03634 0.503226 4.01205 0.536499 3.995 0.573559C3.97794 0.610619 3.96848 0.650719 3.96716 0.691493L3.85727 3.29294C3.85536 3.33351 3.86151 3.37406 3.87537 3.41224C3.88924 3.45042 3.91053 3.48546 3.93803 3.51536C3.96531 3.54542 3.99835 3.56971 4.03519 3.58676C4.07203 3.60382 4.11193 3.6133 4.1525 3.61465ZM4.12205 3.30486L4.23194 0.702082C4.23244 0.690645 4.23715 0.679797 4.24517 0.671631C4.25425 0.664575 4.26546 0.660839 4.27695 0.661042C4.28267 0.661005 4.28833 0.662164 4.29357 0.664443C4.29882 0.666723 4.30352 0.670075 4.3074 0.674281C4.31536 0.682912 4.31964 0.694314 4.31931 0.706054L4.20943 3.3075C4.20909 3.31886 4.20433 3.32964 4.19618 3.33755C4.18802 3.34546 4.1771 3.34987 4.16574 3.34987C4.15431 3.34937 4.14346 3.34465 4.13529 3.33663C4.12684 3.32821 4.12208 3.31678 4.12205 3.30486Z" fill="#FFB085"/>
<path d="M2.34149 7.25539C2.41734 7.25986 2.49197 7.23478 2.54973 7.18542C2.60749 7.13605 2.64389 7.06624 2.65128 6.99062C2.65522 6.91507 2.66675 6.84011 2.68571 6.76688C2.737 6.57887 2.84084 6.40938 2.98505 6.2783C3.12926 6.14722 3.30786 6.05998 3.4999 6.02682C3.58664 6.00512 3.67535 5.99225 3.76468 5.98843C3.84147 5.98635 3.91432 5.95401 3.96738 5.89847C4.02045 5.84293 4.04942 5.76868 4.04799 5.69188C4.04557 5.61509 4.01318 5.54229 3.95775 5.48909C3.90233 5.43589 3.82827 5.40651 3.75144 5.40724C3.20732 5.41915 2.16277 5.75675 2.07672 6.9509C2.07266 7.0261 2.09802 7.09993 2.14744 7.15677C2.19686 7.2136 2.26646 7.24897 2.34149 7.25539Z" fill="#FFB085"/>
</svg>
