<svg width="33" height="31" viewBox="0 0 33 31" fill="none" xmlns="http://www.w3.org/2000/svg">
<g id="Group 51">
<g id="Group 49">
<rect id="Rectangle 77" x="1" y="9.73169" width="2.24323" height="11.1621" rx="1.12161" stroke="#FF5E1F"/>
<rect id="Rectangle 79" x="12.3516" y="9.73169" width="2.24323" height="11.1621" rx="1.12161" stroke="#FF5E1F"/>
<g id="Union">
<mask id="path-3-inside-1_440_7988" fill="white">
<path fill-rule="evenodd" clip-rule="evenodd" d="M4.74319 9.23169C4.1909 9.23169 3.74319 9.6794 3.74319 10.2317V20.1674C3.74317 20.1707 3.74316 20.1741 3.74316 20.1774V28.2855C3.74316 29.405 4.65069 30.3125 5.77018 30.3125C6.88685 30.3125 7.79262 29.4095 7.79718 28.2939C7.80174 29.4095 8.70751 30.3125 9.82418 30.3125C10.9437 30.3125 11.8512 29.405 11.8512 28.2855V20.405C11.8512 20.4012 11.8513 20.3975 11.8513 20.3938V10.2317C11.8513 9.6794 11.4035 9.23169 10.8513 9.23169H4.74319Z"/>
</mask>
<path d="M3.74319 20.1674L4.74319 20.1722V20.1674H3.74319ZM7.79718 28.2939L8.79717 28.2898H6.79719L7.79718 28.2939ZM11.8512 20.405L10.8512 20.3939V20.405H11.8512ZM4.74319 10.2317V8.23169C3.63862 8.23169 2.74319 9.12712 2.74319 10.2317H4.74319ZM4.74319 20.1674V10.2317H2.74319V20.1674H4.74319ZM2.7432 20.1626C2.74318 20.1675 2.74316 20.1724 2.74316 20.1774H4.74316C4.74316 20.1757 4.74317 20.1739 4.74318 20.1722L2.7432 20.1626ZM2.74316 20.1774V28.2855H4.74316V20.1774H2.74316ZM2.74316 28.2855C2.74316 29.9572 4.09841 31.3125 5.77018 31.3125V29.3125C5.20298 29.3125 4.74316 28.8527 4.74316 28.2855H2.74316ZM5.77018 31.3125C7.43777 31.3125 8.79037 29.9641 8.79717 28.298L6.79719 28.2898C6.79488 28.855 6.33594 29.3125 5.77018 29.3125V31.3125ZM6.79719 28.298C6.804 29.9641 8.1566 31.3125 9.82418 31.3125V29.3125C9.25843 29.3125 8.79949 28.855 8.79717 28.2898L6.79719 28.298ZM9.82418 31.3125C11.496 31.3125 12.8512 29.9572 12.8512 28.2855H10.8512C10.8512 28.8527 10.3914 29.3125 9.82418 29.3125V31.3125ZM12.8512 28.2855V20.405H10.8512V28.2855H12.8512ZM10.8513 20.3938L10.8513 20.3939L12.8511 20.416C12.8512 20.4085 12.8513 20.4011 12.8513 20.3938H10.8513ZM10.8513 10.2317V20.3938H12.8513V10.2317H10.8513ZM10.8513 10.2317H10.8513H12.8513C12.8513 9.12712 11.9558 8.23169 10.8513 8.23169V10.2317ZM4.74319 10.2317H10.8513V8.23169H4.74319V10.2317Z" fill="#FF5E1F" mask="url(#path-3-inside-1_440_7988)"/>
</g>
<path id="Ellipse 36" d="M11.3512 4.36702C11.3512 6.32986 9.76004 7.92106 7.7972 7.92106C5.83436 7.92106 4.24316 6.32986 4.24316 4.36702C4.24316 2.40418 5.83436 0.812988 7.7972 0.812988C9.76004 0.812988 11.3512 2.40418 11.3512 4.36702Z" stroke="#FF5E1F"/>
<line id="Line 9" x1="7.29736" y1="28.6914" x2="7.29736" y2="21.3941" stroke="#FF5E1F"/>
<line id="Line 10" x1="8.10791" y1="28.6914" x2="8.10791" y2="21.3941" stroke="#FF5E1F"/>
</g>
<g id="Group 50">
<rect id="Rectangle 80" x="18.0269" y="9.73169" width="2.24323" height="10.3513" rx="1.12161" stroke="#FF5E1F"/>
<rect id="Rectangle 81" x="29.3782" y="9.73169" width="2.24323" height="10.3513" rx="1.12161" stroke="#FF5E1F"/>
<path id="Ellipse 37" d="M28.3781 4.36702C28.3781 6.32986 26.7869 7.92106 24.8241 7.92106C22.8612 7.92106 21.27 6.32986 21.27 4.36702C21.27 2.40418 22.8612 0.812988 24.8241 0.812988C26.7869 0.812988 28.3781 2.40418 28.3781 4.36702Z" stroke="#FF5E1F"/>
<line id="Line 11" x1="24.324" y1="28.6914" x2="24.324" y2="23.8266" stroke="#FF5E1F"/>
<line id="Line 12" x1="25.1348" y1="28.6914" x2="25.1348" y2="23.8266" stroke="#FF5E1F"/>
<g id="Union_2">
<mask id="path-13-inside-2_440_7988" fill="white">
<path fill-rule="evenodd" clip-rule="evenodd" d="M20.7699 10.2317C20.7699 9.6794 21.2176 9.23169 21.7699 9.23169H27.878C28.4303 9.23169 28.878 9.6794 28.878 10.2317V18.5522L32.0107 22.6218C32.5169 23.2794 32.0482 24.2318 31.2183 24.2318H28.8779V28.2855C28.8779 29.405 27.9704 30.3125 26.8509 30.3125C25.7343 30.3125 24.8285 29.4095 24.8239 28.2939C24.8194 29.4095 23.9136 30.3125 22.7969 30.3125C21.6774 30.3125 20.7699 29.405 20.7699 28.2855V24.2318H18.4296C17.5997 24.2318 17.131 23.2794 17.6372 22.6218L20.7699 18.5523V10.2317Z"/>
</mask>
<path d="M28.878 18.5522H27.878V18.8926L28.0856 19.1622L28.878 18.5522ZM32.0107 22.6218L31.2183 23.2318V23.2318L32.0107 22.6218ZM28.8779 24.2318V23.2318H27.8779V24.2318H28.8779ZM24.8239 28.2939L25.8239 28.2898H23.8239L24.8239 28.2939ZM20.7699 24.2318H21.7699V23.2318H20.7699V24.2318ZM17.6372 22.6218L18.4296 23.2318L18.4296 23.2318L17.6372 22.6218ZM20.7699 18.5523L21.5623 19.1623L21.7699 18.8926V18.5523H20.7699ZM21.7699 8.23169C20.6653 8.23169 19.7699 9.12712 19.7699 10.2317H21.7699V8.23169ZM27.878 8.23169H21.7699V10.2317H27.878V8.23169ZM29.878 10.2317C29.878 9.12712 28.9825 8.23169 27.878 8.23169V10.2317H27.878H29.878ZM29.878 18.5522V10.2317H27.878V18.5522H29.878ZM28.0856 19.1622L31.2183 23.2318L32.8031 22.0118L29.6704 17.9422L28.0856 19.1622ZM31.2183 23.2318V23.2318V25.2318C32.878 25.2318 33.8155 23.327 32.8031 22.0118L31.2183 23.2318ZM31.2183 23.2318H28.8779V25.2318H31.2183V23.2318ZM29.8779 28.2855V24.2318H27.8779V28.2855H29.8779ZM26.8509 31.3125C28.5227 31.3125 29.8779 29.9572 29.8779 28.2855H27.8779C27.8779 28.8527 27.4181 29.3125 26.8509 29.3125V31.3125ZM23.8239 28.298C23.8307 29.9641 25.1833 31.3125 26.8509 31.3125V29.3125C26.2852 29.3125 25.8262 28.855 25.8239 28.2898L23.8239 28.298ZM22.7969 31.3125C24.4645 31.3125 25.8171 29.9641 25.8239 28.298L23.8239 28.2898C23.8216 28.855 23.3627 29.3125 22.7969 29.3125V31.3125ZM19.7699 28.2855C19.7699 29.9572 21.1251 31.3125 22.7969 31.3125V29.3125C22.2297 29.3125 21.7699 28.8527 21.7699 28.2855H19.7699ZM19.7699 24.2318V28.2855H21.7699V24.2318H19.7699ZM20.7699 23.2318H18.4296V25.2318H20.7699V23.2318ZM18.4296 23.2318H18.4296L16.8448 22.0118C15.8324 23.327 16.7699 25.2318 18.4296 25.2318V23.2318ZM18.4296 23.2318L21.5623 19.1623L19.9775 17.9423L16.8448 22.0118L18.4296 23.2318ZM19.7699 10.2317V18.5523H21.7699V10.2317H19.7699Z" fill="#FF5E1F" mask="url(#path-13-inside-2_440_7988)"/>
</g>
</g>
</g>
</svg>
