<svg width="30" height="33" viewBox="0 0 30 33" fill="none" xmlns="http://www.w3.org/2000/svg">
<g id="Group 48">
<path id="Vector" d="M11.5976 26.3126C12.9783 26.3126 14.0976 27.4319 14.0976 28.8125C14.0976 30.1932 12.9783 31.3125 11.5976 31.3125C10.2169 31.3125 9.09766 30.1932 9.09766 28.8125C9.09766 27.4319 10.2169 26.3126 11.5976 26.3126Z" stroke="#FF5E1F" stroke-width="1.5"/>
<path id="Vector_2" d="M23.2636 26.3126C24.6443 26.3126 25.7636 27.4319 25.7636 28.8125C25.7636 30.1932 24.6443 31.3125 23.2636 31.3125C21.8829 31.3125 20.7637 30.1932 20.7637 28.8125C20.7637 27.4319 21.8829 26.3126 23.2636 26.3126Z" stroke="#FF5E1F" stroke-width="1.5"/>
<path id="Vector_3" d="M6.18066 16.3116C6.18066 13.9193 6.18331 12.2508 6.35258 10.9919C6.51699 9.76896 6.81774 9.12136 7.279 8.6601C7.74025 8.19884 8.38786 7.8981 9.61081 7.73368C10.8697 7.56442 12.5382 7.56177 14.9305 7.56177H19.7924C22.5706 7.56177 24.5199 7.56475 25.9687 7.77038C27.3828 7.97109 28.0893 8.33694 28.556 8.88785C29.0226 9.43874 29.2674 10.1958 29.2329 11.6237C29.1976 13.0865 28.88 15.0098 28.4233 17.7501C28.0855 19.7771 27.8488 21.1829 27.5351 22.2367C27.2315 23.2568 26.896 23.7967 26.452 24.1728C26.0078 24.549 25.4203 24.7912 24.364 24.923C23.273 25.0591 21.8476 25.0615 19.7924 25.0615H14.9305C12.5382 25.0615 10.8697 25.0588 9.61081 24.8896C8.38786 24.7252 7.74025 24.4245 7.279 23.9632C6.81774 23.5018 6.51699 22.8543 6.35258 21.6314C6.18331 20.3724 6.18066 18.7039 6.18066 16.3116Z" stroke="#FF5E1F" stroke-width="1.5"/>
<path id="Vector_4" d="M6.18074 15.4787V4.64553C6.18074 2.80461 4.68838 1.31226 2.84746 1.31226H0.76416" stroke="#FF5E1F" stroke-width="1.5" stroke-linecap="round"/>
</g>
</svg>
