<svg width="22" height="31" viewBox="0 0 22 31" fill="none" xmlns="http://www.w3.org/2000/svg">
<g id="Group 47">
<path id="Vector" d="M1.56536 27.4478H19.8758C20.1608 27.4478 20.4341 27.561 20.6357 27.7625C20.8372 27.964 20.9504 28.2374 20.9504 28.5224V29.8125H0.490723V28.5224C0.490723 28.2374 0.603943 27.964 0.805476 27.7625C1.00701 27.561 1.28035 27.4478 1.56536 27.4478Z" stroke="#FF5E1F"/>
<path id="Vector_2" d="M12.2043 2.85894L12.2263 2.92007L12.3413 3.23961L12.6807 3.25051L12.7475 3.25266L12.6955 3.29306L12.4274 3.50119L12.5219 3.82718L12.5404 3.89114L12.4855 3.85388L12.2049 3.66356L11.9243 3.85376L11.8691 3.89114L11.8876 3.82753L11.9825 3.50119L11.7139 3.29291L11.662 3.25262L11.7278 3.25051L12.067 3.23962L12.1821 2.92041L12.2043 2.85894Z" stroke="#FF5E1F"/>
<g id="Union">
<mask id="path-3-inside-1_440_8013" fill="white">
<path fill-rule="evenodd" clip-rule="evenodd" d="M14.1338 6.53109C13.3276 6.82937 12.4418 6.8327 11.6334 6.5405C10.8249 6.24829 10.146 5.67941 9.7168 4.9346C9.28761 4.18979 9.13585 3.31712 9.28841 2.47114C9.44097 1.62516 9.888 0.86047 10.5503 0.3125L10.4604 0.326937C9.83292 0.425584 9.2392 0.676509 8.73117 1.05775C8.22314 1.439 7.81629 1.93895 7.54622 2.51384C7.27615 3.08874 7.15109 3.72107 7.182 4.35549C7.2129 4.98991 7.39881 5.60709 7.72347 6.15301C8.04814 6.69894 8.50165 7.15698 9.04433 7.48705C9.4738 7.74826 9.94875 7.92302 10.4425 8.003L10.4166 8.47658C10.3234 8.50579 10.2343 8.54826 10.1522 8.60313C9.98272 8.71637 9.85063 8.87731 9.77264 9.06561C9.69464 9.25391 9.67423 9.46111 9.71399 9.66101C9.75375 9.86091 9.8519 10.0445 9.99602 10.1887C10.0873 10.2799 10.1944 10.3527 10.3114 10.404L10.2813 10.9539C9.28992 12.5548 7.8605 13.847 6.15404 14.6718L5.05024 15.2059C4.00627 15.7109 3.08006 16.4296 2.33164 17.3155C1.58323 18.2013 1.02931 19.2346 0.705795 20.3483C0.382283 21.4619 0.296395 22.6311 0.453697 23.7801C0.611 24.9291 1.00798 26.0322 1.61891 27.0179H19.8216C20.4327 26.0322 20.8298 24.9291 20.9872 23.7801C21.1446 22.6311 21.0588 21.4618 20.7353 20.3481C20.4117 19.2344 19.8578 18.2011 19.1092 17.3153C18.3607 16.4294 17.4344 15.7108 16.3903 15.2059L15.2876 14.6718C13.5811 13.8472 12.1517 12.555 11.1604 10.9542L11.1305 10.4072C11.3139 10.3287 11.4706 10.1985 11.5815 10.0325C11.6948 9.86303 11.7552 9.66379 11.7552 9.45997C11.7554 9.3246 11.7288 9.19053 11.6771 9.06544C11.6253 8.94035 11.5494 8.82669 11.4537 8.73097C11.358 8.63525 11.2443 8.55934 11.1192 8.50761C11.0883 8.49481 11.0568 8.48356 11.0249 8.47387L11.0019 8.05252C11.5803 8.06177 12.1543 7.94176 12.6816 7.70042C13.2591 7.43607 13.7631 7.0342 14.1493 6.52998L14.1338 6.53109Z"/>
</mask>
<path d="M14.1338 6.53109L14.0625 5.53364L13.9204 5.54379L13.7868 5.59322L14.1338 6.53109ZM9.7168 4.9346L10.5832 4.43532L9.7168 4.9346ZM9.28841 2.47114L10.2725 2.64861L9.28841 2.47114ZM10.5503 0.3125L11.1878 1.08299L14.0155 -1.25645L10.3919 -0.674864L10.5503 0.3125ZM10.4604 0.326937L10.6157 1.31481L10.6189 1.3143L10.4604 0.326937ZM8.73117 1.05775L9.33139 1.85759V1.85759L8.73117 1.05775ZM7.54622 2.51384L6.64111 2.08865V2.08865L7.54622 2.51384ZM7.182 4.35549L6.18318 4.40414V4.40414L7.182 4.35549ZM9.04433 7.48705L9.56398 6.63267L9.04433 7.48705ZM10.4425 8.003L11.441 8.05753L11.49 7.15966L10.6024 7.01587L10.4425 8.003ZM10.4166 8.47658L10.7156 9.43085L11.3773 9.22355L11.4151 8.53112L10.4166 8.47658ZM10.1522 8.60313L9.59661 7.77166L9.59661 7.77166L10.1522 8.60313ZM9.77264 9.06561L8.84876 8.68293L8.84876 8.68293L9.77264 9.06561ZM9.71399 9.66101L8.7332 9.8561L8.73321 9.8561L9.71399 9.66101ZM10.3114 10.404L11.3099 10.4585L11.3477 9.76606L10.7125 9.48792L10.3114 10.404ZM10.2813 10.9539L11.1315 11.4804L11.2659 11.2634L11.2799 11.0084L10.2813 10.9539ZM6.15404 14.6718L5.71888 13.7714L5.71846 13.7716L6.15404 14.6718ZM5.05024 15.2059L5.48569 16.1061L5.48583 16.1061L5.05024 15.2059ZM2.33164 17.3155L1.56776 16.6701L1.56776 16.6701L2.33164 17.3155ZM0.705795 20.3483L-0.254507 20.0693H-0.254507L0.705795 20.3483ZM0.453697 23.7801L-0.537061 23.9157L0.453697 23.7801ZM1.61891 27.0179L0.768923 27.5447L1.0622 28.0179H1.61891V27.0179ZM19.8216 27.0179V28.0179H20.3782L20.6715 27.5448L19.8216 27.0179ZM20.9872 23.7801L19.9965 23.6444V23.6444L20.9872 23.7801ZM19.1092 17.3153L19.8731 16.6698L19.1092 17.3153ZM16.3903 15.2059L15.9543 16.1059L15.955 16.1062L16.3903 15.2059ZM15.2876 14.6718L15.7235 13.7718L15.7227 13.7714L15.2876 14.6718ZM11.1604 10.9542L10.1619 11.0087L10.1758 11.2636L10.3102 11.4806L11.1604 10.9542ZM11.1305 10.4072L10.7367 9.48802L10.0939 9.76342L10.132 10.4618L11.1305 10.4072ZM11.5815 10.0325L10.7501 9.47692L10.7501 9.47693L11.5815 10.0325ZM11.7552 9.45997L10.7552 9.45889V9.45997H11.7552ZM11.6771 9.06544L12.6012 8.68326L12.6011 8.68325L11.6771 9.06544ZM11.4537 8.73097L10.7466 9.43807L10.7466 9.43808L11.4537 8.73097ZM11.1192 8.50761L10.737 9.43169L10.7371 9.43169L11.1192 8.50761ZM11.0249 8.47387L10.0264 8.5284L10.0646 9.22735L10.7344 9.43073L11.0249 8.47387ZM11.0019 8.05252L11.0179 7.05265L9.94487 7.0355L10.0034 8.10705L11.0019 8.05252ZM12.6816 7.70042L13.0977 8.6097L13.0978 8.6097L12.6816 7.70042ZM14.1493 6.52998L14.9432 7.13811L16.2946 5.37407L14.078 5.53252L14.1493 6.52998ZM11.2935 7.48095C12.324 7.85343 13.4531 7.84918 14.4808 7.46896L13.7868 5.59322C13.2021 5.80956 12.5596 5.81197 11.9733 5.60004L11.2935 7.48095ZM8.85037 5.43388C9.39747 6.38331 10.2629 7.10848 11.2935 7.48095L11.9733 5.60004C11.387 5.38811 10.8945 4.97551 10.5832 4.43532L8.85037 5.43388ZM8.30429 2.29366C8.10981 3.37205 8.30326 4.48446 8.85037 5.43388L10.5832 4.43532C10.272 3.89512 10.1619 3.26219 10.2725 2.64861L8.30429 2.29366ZM9.91288 -0.45799C9.0686 0.240517 8.49876 1.21528 8.30429 2.29366L10.2725 2.64861C10.3832 2.03504 10.7074 1.48042 11.1878 1.08299L9.91288 -0.45799ZM10.6189 1.3143L10.7088 1.29986L10.3919 -0.674864L10.3019 -0.660427L10.6189 1.3143ZM9.33139 1.85759C9.70871 1.57443 10.1497 1.38807 10.6157 1.3148L10.3051 -0.660929C9.51618 -0.536901 8.76969 -0.221415 8.13094 0.257924L9.33139 1.85759ZM8.45132 2.93903C8.6519 2.51205 8.95407 2.14074 9.33139 1.85759L8.13094 0.257924C7.4922 0.737262 6.98067 1.36584 6.64111 2.08865L8.45132 2.93903ZM8.18081 4.30684C8.15786 3.83565 8.25074 3.36601 8.45132 2.93903L6.64111 2.08865C6.30156 2.81147 6.14433 3.60649 6.18318 4.40414L8.18081 4.30684ZM8.58297 5.64187C8.34184 5.23641 8.20376 4.77803 8.18081 4.30683L6.18318 4.40414C6.22203 5.20179 6.45578 5.97776 6.86398 6.66416L8.58297 5.64187ZM9.56398 6.63267C9.16093 6.38752 8.8241 6.04734 8.58297 5.64187L6.86398 6.66416C7.27218 7.35055 7.84238 7.92644 8.52468 8.34143L9.56398 6.63267ZM10.6024 7.01587C10.2357 6.95647 9.88295 6.82667 9.56398 6.63267L8.52468 8.34143C9.06465 8.66985 9.66181 8.88957 10.2826 8.99013L10.6024 7.01587ZM11.4151 8.53112L11.441 8.05753L9.44399 7.94847L9.41812 8.42205L11.4151 8.53112ZM10.7078 9.4346C10.7102 9.43297 10.7128 9.43172 10.7156 9.43085L10.1177 7.52231C9.934 7.57986 9.75841 7.66355 9.59661 7.77166L10.7078 9.4346ZM10.6965 9.44829C10.6988 9.44272 10.7027 9.43795 10.7078 9.4346L9.59661 7.77166C9.2627 7.99478 9.00244 8.3119 8.84876 8.68293L10.6965 9.44829ZM10.6948 9.46592C10.6936 9.46002 10.6942 9.45389 10.6965 9.44829L8.84876 8.68293C8.69508 9.05394 8.65485 9.4622 8.7332 9.8561L10.6948 9.46592ZM10.7031 9.48155C10.6989 9.47728 10.696 9.47185 10.6948 9.46592L8.73321 9.8561C8.81155 10.25 9.00493 10.6118 9.28891 10.8958L10.7031 9.48155ZM10.7125 9.48792C10.709 9.48639 10.7058 9.48424 10.7031 9.48155L9.28891 10.8958C9.46872 11.0756 9.67972 11.219 9.91028 11.32L10.7125 9.48792ZM11.2799 11.0084L11.3099 10.4585L9.31286 10.3494L9.28283 10.8994L11.2799 11.0084ZM6.58921 15.5721C8.46726 14.6644 10.0404 13.2423 11.1315 11.4804L9.43117 10.4274C8.53944 11.8673 7.25374 13.0296 5.71888 13.7714L6.58921 15.5721ZM5.48583 16.1061L6.58963 15.5719L5.71846 13.7716L4.61466 14.3058L5.48583 16.1061ZM3.09552 17.9608C3.75352 17.182 4.56784 16.5501 5.48569 16.1061L4.6148 14.3057C3.4447 14.8717 2.40659 15.6772 1.56776 16.6701L3.09552 17.9608ZM1.6661 20.6272C1.95052 19.6481 2.43752 18.7397 3.09552 17.9608L1.56776 16.6701C0.728929 17.663 0.10809 18.8211 -0.254507 20.0693L1.6661 20.6272ZM1.44446 23.6445C1.30616 22.6343 1.38167 21.6063 1.6661 20.6272L-0.254507 20.0693C-0.617103 21.3175 -0.713367 22.6279 -0.537061 23.9157L1.44446 23.6445ZM2.4689 26.4911C1.93177 25.6245 1.58275 24.6546 1.44446 23.6445L-0.537061 23.9157C-0.360755 25.2035 0.0841843 26.4399 0.768923 27.5447L2.4689 26.4911ZM19.8216 26.0179H1.61891V28.0179H19.8216V26.0179ZM19.9965 23.6444C19.8581 24.6546 19.509 25.6244 18.9717 26.491L20.6715 27.5448C21.3565 26.44 21.8016 25.2036 21.978 23.9158L19.9965 23.6444ZM19.775 20.6271C20.0594 21.6062 20.1349 22.6342 19.9965 23.6444L21.978 23.9158C22.1544 22.628 22.0582 21.3174 21.6956 20.0691L19.775 20.6271ZM18.3454 17.9607C19.0035 18.7395 19.4905 19.6479 19.775 20.6271L21.6956 20.0691C21.3329 18.8209 20.712 17.6627 19.8731 16.6698L18.3454 17.9607ZM15.955 16.1062C16.8729 16.55 17.6873 17.1819 18.3454 17.9607L19.8731 16.6698C19.0341 15.677 17.9958 14.8715 16.8256 14.3056L15.955 16.1062ZM14.8517 15.5717L15.9543 16.1059L16.8262 14.3059L15.7235 13.7718L14.8517 15.5717ZM10.3102 11.4806C11.4012 13.2425 12.9744 14.6647 14.8525 15.5722L15.7227 13.7714C14.1878 13.0297 12.9021 11.8676 12.0106 10.4277L10.3102 11.4806ZM10.132 10.4618L10.1619 11.0087L12.1589 10.8997L12.129 10.3527L10.132 10.4618ZM10.7501 9.47693C10.7468 9.48183 10.7421 9.48569 10.7367 9.48802L11.5243 11.3264C11.8856 11.1716 12.1944 10.9152 12.413 10.5881L10.7501 9.47693ZM10.7552 9.45997C10.7552 9.46601 10.7534 9.47191 10.7501 9.47692L12.413 10.5881C12.6361 10.2541 12.7552 9.86157 12.7552 9.45997H10.7552ZM10.753 9.44762C10.7545 9.45121 10.7552 9.45504 10.7552 9.45889L12.7552 9.46105C12.7555 9.19417 12.7031 8.92986 12.6012 8.68326L10.753 9.44762ZM10.7466 9.43808C10.7493 9.44079 10.7515 9.44403 10.753 9.44763L12.6011 8.68325C12.4992 8.43666 12.3495 8.21258 12.1608 8.02386L10.7466 9.43808ZM10.7371 9.43169C10.7406 9.43317 10.7439 9.43533 10.7466 9.43807L12.1608 8.02386C11.9721 7.83516 11.748 7.68552 11.5014 7.58352L10.7371 9.43169ZM10.7344 9.43073C10.7353 9.43101 10.7362 9.43133 10.737 9.43169L11.5014 7.58352C11.4404 7.5583 11.3784 7.53611 11.3155 7.51701L10.7344 9.43073ZM10.0034 8.10705L10.0264 8.5284L12.0234 8.41934L12.0004 7.99799L10.0034 8.10705ZM12.2654 6.79114C11.8738 6.97039 11.4475 7.05951 11.0179 7.05265L10.9859 9.05239C11.7132 9.06402 12.4348 8.91313 13.0977 8.6097L12.2654 6.79114ZM13.3555 5.92184C13.0686 6.29633 12.6943 6.5948 12.2654 6.79114L13.0978 8.6097C13.8239 8.27733 14.4575 7.77207 14.9432 7.13811L13.3555 5.92184ZM14.2051 7.52854L14.2206 7.52743L14.078 5.53252L14.0625 5.53364L14.2051 7.52854Z" fill="#FF5E1F" mask="url(#path-3-inside-1_440_8013)"/>
</g>
</g>
</svg>
