<svg width="20" height="20" viewBox="0 0 20 20" fill="none" xmlns="http://www.w3.org/2000/svg">
<mask id="mask0_440_5599" style="mask-type:alpha" maskUnits="userSpaceOnUse" x="2" y="1" width="16" height="18">
<path fill-rule="evenodd" clip-rule="evenodd" d="M3.47631 2.64306C2.5 3.61937 2.5 5.19072 2.5 8.33342V17.1676C2.5 18.4383 3.86518 19.2417 4.97608 18.6245L9.19058 16.2831C9.694 16.0034 10.306 16.0034 10.8094 16.2831L15.0239 18.6245C16.1348 19.2417 17.5 18.4383 17.5 17.1676V8.33342C17.5 5.19072 17.5 3.61937 16.5237 2.64306C15.5474 1.66675 13.976 1.66675 10.8333 1.66675H9.16667C6.02397 1.66675 4.45262 1.66675 3.47631 2.64306Z" fill="white"/>
</mask>
<g mask="url(#mask0_440_5599)">
<path d="M16.5237 2.64306L17.4076 1.75918L16.5237 2.64306ZM9.19059 16.2831L9.79767 17.3758L9.19059 16.2831ZM10.8094 16.2831L10.2023 17.3758L10.8094 16.2831ZM4.97608 18.6245L5.58313 19.7172L4.97608 18.6245ZM3.75 8.33342C3.75 6.72674 3.75266 5.64747 3.8609 4.8424C3.9643 4.0733 4.143 3.74414 4.3602 3.52694L2.59243 1.75918C1.83331 2.51829 1.52386 3.46296 1.38319 4.50928C1.24735 5.51965 1.25 6.79741 1.25 8.33342H3.75ZM3.75 17.1676V8.33342H1.25V17.1676H3.75ZM5.58313 19.7172L9.79767 17.3758L8.58359 15.1904L4.36902 17.5318L5.58313 19.7172ZM10.2023 17.3758L14.4169 19.7172L15.631 17.5318L11.4165 15.1904L10.2023 17.3758ZM16.25 8.33342V17.1676H18.75V8.33342H16.25ZM15.6398 3.52694C15.857 3.74414 16.0357 4.0733 16.1391 4.8424C16.2473 5.64747 16.25 6.72674 16.25 8.33342H18.75C18.75 6.79741 18.7527 5.51965 18.6168 4.50928C18.4762 3.46296 18.1667 2.51829 17.4076 1.75918L15.6398 3.52694ZM10.8333 2.91675C12.44 2.91675 13.5193 2.91941 14.3243 3.02764C15.0934 3.13104 15.4226 3.30975 15.6398 3.52694L17.4076 1.75918C16.6484 1.00006 15.7038 0.690612 14.6575 0.549937C13.6471 0.414097 12.3693 0.416752 10.8333 0.416752V2.91675ZM9.16667 2.91675H10.8333V0.416752H9.16667V2.91675ZM4.3602 3.52694C4.5774 3.30975 4.90655 3.13104 5.67565 3.02764C6.48072 2.91941 7.55999 2.91675 9.16667 2.91675V0.416752C7.63066 0.416752 6.3529 0.414097 5.34254 0.549937C4.29621 0.690612 3.35155 1.00006 2.59243 1.75918L4.3602 3.52694ZM14.4169 19.7172C16.3609 20.7973 18.75 19.3915 18.75 17.1676H16.25C16.25 17.4853 15.9087 17.6861 15.631 17.5318L14.4169 19.7172ZM9.79767 17.3758C9.9235 17.3058 10.0765 17.3058 10.2023 17.3758L11.4165 15.1904C10.5356 14.701 9.46442 14.701 8.58359 15.1904L9.79767 17.3758ZM1.25 17.1676C1.25 19.3915 3.63908 20.7973 5.58313 19.7172L4.36902 17.5318C4.0913 17.6861 3.75 17.4853 3.75 17.1676H1.25Z" fill="white"/>
<path d="M8.125 8.54175H11.875" stroke="white" stroke-width="1.5" stroke-linecap="round"/>
</g>
</svg>
