<svg width="30" height="30" viewBox="0 0 30 30" fill="none" xmlns="http://www.w3.org/2000/svg">
<g id="Icons">
<path id="Vector" d="M12.5922 23.6998L12.5922 23.6997C12.5608 23.6486 12.557 23.6123 12.5585 23.5886C12.5602 23.5622 12.5705 23.5278 12.599 23.489C12.6591 23.4073 12.7858 23.3296 12.9509 23.3296C13.1448 23.3296 13.361 23.462 13.675 23.7374L13.6751 23.7374C14.0286 24.0474 14.4929 24.2358 15.0001 24.2358C15.5071 24.2358 15.9715 24.0475 16.325 23.7375C16.6393 23.462 16.8553 23.3296 17.0493 23.3296C17.2144 23.3296 17.3411 23.4073 17.4012 23.489C17.4297 23.5278 17.44 23.5622 17.4417 23.5886C17.4433 23.6123 17.4394 23.6486 17.408 23.6997C16.9107 24.5099 16.018 25.0483 15.0001 25.0483C13.9821 25.0483 13.0894 24.5098 12.5922 23.6998Z" fill="white" stroke="white"/>
<mask id="mask0_440_5547" style="mask-type:alpha" maskUnits="userSpaceOnUse" x="4" y="2" width="22" height="20">
<g id="path-3-inside-1_73_564">
<path id="Vector_2" fill-rule="evenodd" clip-rule="evenodd" d="M24.0625 13.2666C24.0625 9.65573 22.2702 6.28029 19.2788 4.25772L17.7073 3.19509C16.0718 2.08927 13.9282 2.08927 12.2927 3.19509L10.7211 4.25771C7.72981 6.28029 5.93749 9.65572 5.93749 13.2666V15.5793C5.19588 16.243 4.72916 17.2076 4.72916 18.2812C4.72916 20.2833 6.35213 21.9062 8.35416 21.9062H21.6458C23.6479 21.9062 25.2708 20.2833 25.2708 18.2812C25.2708 17.2076 24.804 16.243 24.0625 15.5793V13.2666Z" fill="white"/>
</g>
</mask>
<g mask="url(#mask0_440_5547)">
<path id="Vector_3" d="M4.81896 15.0793H4.62499V15.0451C4.65178 15.0143 4.67894 14.9838 4.70647 14.9536L4.81896 15.0793ZM5.10128 13.8953L4.98616 13.7666H5.93749H7.24999V15.0793H6.161L5.10128 13.8953ZM5.93749 12.7666H4.63522C4.7864 9.07618 6.60495 5.65133 9.57749 3.45896L10.3069 4.53777L11.0494 5.63587C8.79695 7.33663 7.41031 9.94806 7.26304 12.7666H5.93749ZM11.1353 3.97764L10.4002 2.89036L11.1433 2.38786L11.8785 3.47514L12.6137 4.56243L11.8705 5.06494L11.1353 3.97764ZM13.462 4.03176L11.9831 1.84454C13.8544 0.789452 16.1456 0.789451 18.0169 1.84453L17.2931 2.91502L16.538 4.03176C15.5679 3.56038 14.4321 3.56038 13.462 4.03176ZM18.1215 3.47515L18.8566 2.38786L19.5998 2.89035L18.8646 3.97765L18.1294 5.06493L17.3863 4.56244L18.1215 3.47515ZM19.693 4.53778L20.4225 3.45896C23.395 5.65133 25.2136 9.07617 25.3648 12.7666H24.0625H22.7369C22.5897 9.94806 21.203 7.33663 18.9505 5.63587L19.693 4.53778ZM24.0625 13.7666H25.0139L24.8987 13.8953L23.839 15.0793H22.75V13.7666H24.0625ZM22.75 16.0793H22.9439L22.8146 16.2238L22.75 16.166V16.0793ZM23.5236 16.931L24.286 16.0793H25.875H26.066C26.3262 16.6007 26.4972 17.1749 26.5583 17.7812H23.9043C23.8358 17.4698 23.7045 17.1819 23.5236 16.931ZM22.1458 20.5395C23.0216 20.3465 23.7111 19.657 23.9041 18.7812H26.5583C26.3242 21.1089 24.4735 22.9596 22.1458 23.1937V20.5395ZM25.375 15.0793H25.181L25.2935 14.9536C25.3211 14.9837 25.3482 15.0143 25.375 15.0451V15.0793ZM21.1458 20.5937V23.2187H8.85416V20.5937H21.1458ZM7.85416 20.5395V23.1937C5.52649 22.9596 3.67574 21.1089 3.44166 18.7812H6.09585C6.28889 19.657 6.97837 20.3465 7.85416 20.5395ZM6.09567 17.7812H3.44171C3.5028 17.1749 3.67374 16.6007 3.93398 16.0793H4.12499H5.71398L6.47633 16.931C6.29545 17.1819 6.16415 17.4698 6.09567 17.7812ZM7.18537 16.2238L7.05602 16.0793H7.24999V16.166L7.18537 16.2238Z" fill="white" stroke="white"/>
</g>
</g>
</svg>
