<svg width="32" height="32" viewBox="0 0 32 32" fill="none" xmlns="http://www.w3.org/2000/svg">
<rect x="1" y="0.65625" width="30" height="30" rx="15" stroke="white" stroke-linecap="round"/>
<path d="M19.9271 8.40609C19.9271 10.575 18.1688 12.3332 16 12.3332C13.8312 12.3332 12.0729 10.575 12.0729 8.40609C12.0729 6.23721 13.8312 4.479 16 4.479C18.1688 4.479 19.9271 6.23721 19.9271 8.40609Z" stroke="white" stroke-width="1.5" stroke-linecap="round"/>
<path d="M23.5521 21.6979C23.5521 22.9976 22.8161 24.2598 21.4542 25.2325C20.0941 26.2042 18.1686 26.8333 16 26.8333C13.8314 26.8333 11.9059 26.2042 10.5458 25.2325C9.18391 24.2598 8.44791 22.9976 8.44791 21.6979C8.44791 20.3982 9.18391 19.136 10.5458 18.1633C11.9059 17.1917 13.8314 16.5625 16 16.5625C18.1686 16.5625 20.0941 17.1917 21.4542 18.1633C22.8161 19.136 23.5521 20.3982 23.5521 21.6979Z" stroke="white" stroke-width="1.5" stroke-linecap="round"/>
</svg>
