<svg width="31" height="31" viewBox="0 0 31 31" fill="none" xmlns="http://www.w3.org/2000/svg">
<g id="Union">
<mask id="path-1-inside-1_440_7983" fill="white">
<path fill-rule="evenodd" clip-rule="evenodd" d="M11.6786 0.3125C11.1263 0.3125 10.6786 0.760216 10.6786 1.3125V9.49074C10.6786 10.043 10.2309 10.4907 9.67861 10.4907H1.5C0.947715 10.4907 0.5 10.9385 0.5 11.4907V19.1336C0.5 19.6859 0.947716 20.1336 1.5 20.1336H9.67861C10.2309 20.1336 10.6786 20.5813 10.6786 21.1336V29.3125C10.6786 29.8648 11.1263 30.3125 11.6786 30.3125H19.3215C19.8738 30.3125 20.3215 29.8648 20.3215 29.3125V21.1336C20.3215 20.5813 20.7692 20.1336 21.3215 20.1336H29.5C30.0523 20.1336 30.5 19.6859 30.5 19.1336V11.4907C30.5 10.9385 30.0523 10.4907 29.5 10.4907H21.3215C20.7692 10.4907 20.3215 10.043 20.3215 9.49074V1.3125C20.3215 0.760215 19.8738 0.3125 19.3215 0.3125H11.6786Z"/>
</mask>
<path d="M12.6786 1.3125C12.6786 1.86478 12.2309 2.3125 11.6786 2.3125V-1.6875C10.0218 -1.6875 8.67861 -0.344351 8.67861 1.3125H12.6786ZM12.6786 9.49074V1.3125H8.67861V9.49074H12.6786ZM1.5 12.4907H9.67861V8.49074H1.5V12.4907ZM2.5 11.4907C2.5 12.043 2.05229 12.4907 1.5 12.4907V8.49074C-0.156856 8.49074 -1.5 9.83389 -1.5 11.4907H2.5ZM2.5 19.1336V11.4907H-1.5V19.1336H2.5ZM1.5 18.1336C2.05228 18.1336 2.5 18.5813 2.5 19.1336H-1.5C-1.5 20.7904 -0.156852 22.1336 1.5 22.1336V18.1336ZM9.67861 18.1336H1.5V22.1336H9.67861V18.1336ZM12.6786 29.3125V21.1336H8.67861V29.3125H12.6786ZM11.6786 28.3125C12.2309 28.3125 12.6786 28.7602 12.6786 29.3125H8.67861C8.67861 30.9694 10.0218 32.3125 11.6786 32.3125V28.3125ZM19.3215 28.3125H11.6786V32.3125H19.3215V28.3125ZM18.3215 29.3125C18.3215 28.7602 18.7692 28.3125 19.3215 28.3125V32.3125C20.9783 32.3125 22.3215 30.9694 22.3215 29.3125H18.3215ZM18.3215 21.1336V29.3125H22.3215V21.1336H18.3215ZM29.5 18.1336H21.3215V22.1336H29.5V18.1336ZM28.5 19.1336C28.5 18.5813 28.9477 18.1336 29.5 18.1336V22.1336C31.1569 22.1336 32.5 20.7904 32.5 19.1336H28.5ZM28.5 11.4907V19.1336H32.5V11.4907H28.5ZM29.5 12.4907C28.9477 12.4907 28.5 12.043 28.5 11.4907H32.5C32.5 9.83388 31.1569 8.49074 29.5 8.49074V12.4907ZM21.3215 12.4907H29.5V8.49074H21.3215V12.4907ZM18.3215 1.3125V9.49074H22.3215V1.3125H18.3215ZM19.3215 2.3125C18.7692 2.3125 18.3215 1.86479 18.3215 1.3125H22.3215C22.3215 -0.344355 20.9783 -1.6875 19.3215 -1.6875V2.3125ZM11.6786 2.3125H19.3215V-1.6875H11.6786V2.3125ZM21.3215 8.49074C21.8738 8.49074 22.3215 8.93845 22.3215 9.49074H18.3215C18.3215 11.1476 19.6646 12.4907 21.3215 12.4907V8.49074ZM22.3215 21.1336C22.3215 21.6859 21.8738 22.1336 21.3215 22.1336V18.1336C19.6646 18.1336 18.3215 19.4767 18.3215 21.1336H22.3215ZM9.67861 22.1336C9.12632 22.1336 8.67861 21.6859 8.67861 21.1336H12.6786C12.6786 19.4767 11.3355 18.1336 9.67861 18.1336V22.1336ZM8.67861 9.49074C8.67861 8.93846 9.12633 8.49074 9.67861 8.49074V12.4907C11.3355 12.4907 12.6786 11.1476 12.6786 9.49074H8.67861Z" fill="#FF5E1F" mask="url(#path-1-inside-1_440_7983)"/>
</g>
</svg>
