<svg width="23" height="22" viewBox="0 0 23 22" fill="none" xmlns="http://www.w3.org/2000/svg">
<path d="M10.4328 1.42597C10.8871 0.570576 12.1129 0.570576 12.5672 1.42597L14.9307 5.87608C15.1053 6.20493 15.4219 6.43487 15.7886 6.49936L20.7512 7.37207C21.7052 7.53981 22.0839 8.7055 21.4108 9.4019L17.9089 13.025C17.6501 13.2926 17.5292 13.6648 17.5812 14.0334L18.2848 19.0229C18.42 19.9819 17.4283 20.7024 16.5581 20.2774L12.0302 18.0665C11.6956 17.903 11.3044 17.903 10.9698 18.0665L6.44196 20.2774C5.57162 20.7024 4.58002 19.9819 4.71526 19.0229L5.41882 14.0334C5.47082 13.6648 5.34992 13.2926 5.09115 13.025L1.58922 9.4019C0.916078 8.7055 1.29484 7.53981 2.24876 7.37207L7.21143 6.49936C7.57815 6.43487 7.89466 6.20491 8.06932 5.87608L10.4328 1.42597Z" fill="#FFB085" stroke="white" stroke-width="1.5"/>
</svg>
